<svg width="430" height="190" viewBox="0 0 430 190" fill="none" xmlns="http://www.w3.org/2000/svg" role="img">
  <rect x="0.5" y="0.5" width="429" height="189" rx="10" fill="#0d1117" stroke="#30363d"/>
  
  <text x="32" y="34" fill="#58a6ff" font-family="Segoe UI, Helvetica, Arial, sans-serif" font-size="18" font-weight="700">Top Languages</text>
  <text x="32" y="62" fill="#c9d1d9" font-family="Segoe UI, Helvetica, Arial, sans-serif" font-size="13" font-weight="600">C</text><rect x="154" y="51" width="220" height="8" rx="4" fill="#21262d"/><rect x="154" y="51" width="116" height="8" rx="4" fill="#58a6ff"/><text x="388" y="62" fill="#8b949e" font-family="Segoe UI, Helvetica, Arial, sans-serif" font-size="12" text-anchor="end">53.0%</text><text x="32" y="84" fill="#c9d1d9" font-family="Segoe UI, Helvetica, Arial, sans-serif" font-size="13" font-weight="600">HTML</text><rect x="154" y="73" width="220" height="8" rx="4" fill="#21262d"/><rect x="154" y="73" width="33" height="8" rx="4" fill="#f78166"/><text x="388" y="84" fill="#8b949e" font-family="Segoe UI, Helvetica, Arial, sans-serif" font-size="12" text-anchor="end">15.4%</text><text x="32" y="106" fill="#c9d1d9" font-family="Segoe UI, Helvetica, Arial, sans-serif" font-size="13" font-weight="600">Python</text><rect x="154" y="95" width="220" height="8" rx="4" fill="#21262d"/><rect x="154" y="95" width="28" height="8" rx="4" fill="#a5d6ff"/><text x="388" y="106" fill="#8b949e" font-family="Segoe UI, Helvetica, Arial, sans-serif" font-size="12" text-anchor="end">12.9%</text><text x="32" y="128" fill="#c9d1d9" font-family="Segoe UI, Helvetica, Arial, sans-serif" font-size="13" font-weight="600">C++</text><rect x="154" y="117" width="220" height="8" rx="4" fill="#21262d"/><rect x="154" y="117" width="19" height="8" rx="4" fill="#d2a8ff"/><text x="388" y="128" fill="#8b949e" font-family="Segoe UI, Helvetica, Arial, sans-serif" font-size="12" text-anchor="end">9.0%</text><text x="32" y="150" fill="#c9d1d9" font-family="Segoe UI, Helvetica, Arial, sans-serif" font-size="13" font-weight="600">CSS</text><rect x="154" y="139" width="220" height="8" rx="4" fill="#21262d"/><rect x="154" y="139" width="5" height="8" rx="4" fill="#7ee787"/><text x="388" y="150" fill="#8b949e" font-family="Segoe UI, Helvetica, Arial, sans-serif" font-size="12" text-anchor="end">2.7%</text><text x="32" y="172" fill="#c9d1d9" font-family="Segoe UI, Helvetica, Arial, sans-serif" font-size="13" font-weight="600">C#</text><rect x="154" y="161" width="220" height="8" rx="4" fill="#21262d"/><rect x="154" y="161" width="5" height="8" rx="4" fill="#ffdf5d"/><text x="388" y="172" fill="#8b949e" font-family="Segoe UI, Helvetica, Arial, sans-serif" font-size="12" text-anchor="end">2.6%</text>

</svg>
